<?xml version="1.0" encoding="utf-8"?>
<!-- Generator: Adobe Illustrator 17.0.0, SVG Export Plug-In . SVG Version: 6.00 Build 0)  -->
<!DOCTYPE svg PUBLIC "-//W3C//DTD SVG 1.1//EN" "http://www.w3.org/Graphics/SVG/1.1/DTD/svg11.dtd">
<svg version="1.1" id="Layer_1" xmlns="http://www.w3.org/2000/svg" xmlns:xlink="http://www.w3.org/1999/xlink" x="0px" y="0px"
	 width="550px" height="600px" viewBox="0 0 550 600" enable-background="new 0 0 550 600" xml:space="preserve">
<g>
	<path fill="#0A0A0B" stroke="#FFFFFF" stroke-width="6" stroke-miterlimit="10" d="M258.288,69.681
		c7.329,1.494,14.635,2.944,21.347,6.569c21.332,11.518,32.447,34.946,27.557,58.893c-0.546,2.674-0.131,4.27,1.8,6.097
		c48.7,46.095,97.359,92.235,145.967,138.427c1.886,1.793,3.692,2.37,6.242,2.166c23.513-1.877,45.152,14.799,48.572,37.307
		c3.846,25.319-11.263,48.087-35.47,53.26c-3.256,0.696-6.766,1.442-9.956,0.923c-4.877-0.794-7.665,1.481-10.742,4.592
		c-37.963,38.379-76,76.684-114.093,114.934c-2.615,2.625-4,5.103-3.89,9.072c0.239,8.666-1.968,16.883-6.63,24.344
		c-0.574,0.919-1.665,1.75-1.19,3.464c11.611,0,23.305-0.001,34.999,0c15.256,0.001,30.517-0.231,45.767,0.061
		c22.581,0.432,35.535,22.878,24.465,42c-4.224,7.296-11.095,10.791-18.741,13.208c-83.538,0-167.076,0-250.614,0
		c-0.56-1.585-2.172-1.366-3.319-1.804c-11.642-4.441-18.759-15.71-17.625-28.073c1.187-12.932,9.978-22.635,22.561-24.716
		c2.796-0.462,5.668-0.643,8.506-0.649c25.998-0.048,51.996-0.028,77.957-0.028c0.667-1.497-0.532-2.264-1.062-3.189
		c-9.289-16.236-9.444-32.67,0.141-48.596c9.048-15.033,23.235-21.661,40.544-21.58c3.279,0.015,5.545-0.728,7.894-3.052
		c38.635-38.224,77.339-76.378,116.122-114.452c2.727-2.677,3.165-5.339,3.569-9.061c0.821-7.563-3.316-11.444-8.04-15.897
		c-45.037-42.457-89.965-85.029-134.832-127.665c-2.529-2.403-3.886-3.078-6.569-0.13c-4.846,5.325-10.05,10.361-15.437,15.144
		c-2.793,2.48-3.174,5.033-2.628,8.407c3.472,21.44,0.632,42.002-8.754,61.647c-7.614,15.937-19.893,28.067-32.563,39.82
		c-4.105,3.808-8.693,3.239-12.952-0.917c-6.963-6.793-13.831-13.686-20.624-20.649c-1.934-1.983-3.511-2.631-6.488-1.722
		c-44.782,13.672-88.421-24.389-81.276-70.742c0.179-1.159-0.042-2.501,0.469-3.469c3.857-7.302,0.141-11.9-5.123-16.548
		c-5.773-5.097-11.082-10.737-16.41-16.316c-4.151-4.348-4.52-8.841-0.692-12.972c12.916-13.94,26.464-27.13,44.505-34.501
		c18.255-7.459,37.099-10.117,56.595-6.679c3.694,0.651,6.144,0.034,8.8-2.752c11.693-12.258,23.689-24.226,35.489-36.383
		c8.781-9.047,19.089-15.111,31.705-16.936c0.387-0.056,0.709-0.563,1.061-0.86C249.565,69.681,253.927,69.681,258.288,69.681z"/>
	<path fill="#FFFFFF" stroke="#FFFFFF" stroke-width="6" stroke-miterlimit="10" d="M152.821,143.494
		c34.32,1.219,66.505,25.504,76.711,57.219c10.068,31.284,0.06,66.385-24.458,88.251c-1.519,1.354-2.435,1.352-3.626-0.124
		c-0.524-0.649-1.175-1.195-1.768-1.788c-36.531-36.53-73.025-73.096-109.665-109.517c-2.895-2.878-3.148-4.286-0.099-7.288
		C108.233,152.208,130.306,142.663,152.821,143.494z"/>
	<path fill="#FFFFFF" stroke="#FFFFFF" stroke-width="6" stroke-miterlimit="10" d="M244.376,184.451
		c-4.386-8.878-9.258-16.821-15.349-23.971c-9.373-11.003-20.804-19.29-33.654-25.743c-1.25-0.628-3.767-0.824-1.332-3.22
		c11.938-11.748,22.74-24.665,35.458-35.586c14.368-12.337,35.296-10.986,49.185,2.527c13.302,12.941,14.97,33.894,3.105,48.358
		C270.65,160.398,256.905,171.479,244.376,184.451z"/>
	<path fill="#FEFEFE" stroke="#FFFFFF" stroke-width="6" stroke-miterlimit="10" d="M289.997,566.685
		c-38.898,0-77.795,0.008-116.693-0.007c-7.592-0.003-10.846-2.053-11.877-7.324c-1.122-5.738,1.662-9.851,7.432-10.82
		c1.639-0.275,3.327-0.363,4.993-0.363c77.292-0.017,154.585-0.02,231.877-0.01c9.123,0.001,12.96,2.982,12.617,9.761
		c-0.219,4.328-2.232,7.345-6.693,8.159c-2.123,0.387-4.312,0.578-6.471,0.579C366.786,566.695,328.392,566.685,289.997,566.685z"/>
	<path fill="#FFFFFF" stroke="#FFFFFF" stroke-width="6" stroke-miterlimit="10" d="M439.478,288.633
		c-4.562,3.295-8.76,6.493-11.536,10.933c-1.948,3.115-3.113,2.111-5.11,0.211c-22.959-21.851-45.979-43.637-68.989-65.434
		c-21.549-20.413-43.06-40.866-64.717-61.164c-2.574-2.412-2.793-3.723-0.102-6.125c2.85-2.545,5.383-5.538,7.626-8.644
		c1.898-2.628,3.009-2.442,5.257-0.288c17.554,16.826,35.251,33.502,52.898,50.23C382.916,235,411.023,261.654,439.478,288.633z"/>
	<path fill="#FFFFFF" stroke="#FFFFFF" stroke-width="6" stroke-miterlimit="10" d="M425.964,352.752
		c3.05,3.972,6.106,7.972,10.276,10.899c1.748,1.227,1.98,2.314,0.261,3.913c-2.819,2.621-5.425,5.471-8.129,8.217
		c-32.086,32.597-64.198,65.168-96.212,97.835c-2.575,2.628-4.053,3.598-6.459-0.214c-2.223-3.521-5.542-6.254-9.078-8.557
		c-1.68-1.094-2.359-1.876-0.519-3.694c36.342-35.919,72.62-71.902,108.92-107.864C425.249,353.063,425.592,352.959,425.964,352.752
		z"/>
	<path fill="#FFFFFF" stroke="#FFFFFF" stroke-width="6" stroke-miterlimit="10" d="M289.911,529.692
		c-15.488,0.067-27.452-11.65-27.609-27.04c-0.16-15.717,11.485-27.891,27.235-27.966c13.421-0.064,27.241,12.205,27.732,27.196
		C317.781,517.548,305.503,529.624,289.911,529.692z"/>
	<path fill="#FFFFFF" stroke="#FFFFFF" stroke-width="6" stroke-miterlimit="10" d="M491.99,327.577
		c-0.072,15.533-11.796,27.286-27.321,27.388c-10.976,0.072-27.814-17.074-27.629-28.135c0.256-15.279,12.102-26.902,27.352-26.837
		C480.296,300.061,492.063,311.821,491.99,327.577z"/>
	<path fill="#FEFEFE" stroke="#FFFFFF" stroke-width="6" stroke-miterlimit="10" d="M106.887,221.368
		c16.647,16.628,33.289,33.252,49.714,49.659C131.481,275.653,102.896,252.424,106.887,221.368z"/>
</g>
</svg>
