<?xml version="1.0" encoding="utf-8"?>
<!-- Generator: Adobe Illustrator 17.0.0, SVG Export Plug-In . SVG Version: 6.00 Build 0)  -->
<!DOCTYPE svg PUBLIC "-//W3C//DTD SVG 1.1//EN" "http://www.w3.org/Graphics/SVG/1.1/DTD/svg11.dtd">
<svg version="1.1" id="Layer_1" xmlns="http://www.w3.org/2000/svg" xmlns:xlink="http://www.w3.org/1999/xlink" x="0px" y="0px"
	 width="800px" height="800px" viewBox="0 0 800 800" enable-background="new 0 0 800 800" xml:space="preserve">
<g>
	<path d="M109.6,689.569c0-2.211,1.793-4,4-4h209.402c2.211,0,4,1.789,4,4c0,2.207-1.789,4-4,4H113.6
		C111.393,693.569,109.6,691.776,109.6,689.569L109.6,689.569z M85.244,689.569c0,2.207,1.793,4,4,4h6.066c2.211,0,4-1.793,4-4
		c0-2.211-1.789-4-4-4h-6.066C87.037,685.569,85.244,687.358,85.244,689.569L85.244,689.569z M323.001,709.831H95.311
		c-2.211,0-4,1.789-4,4s1.789,4,4,4h227.691c2.211,0,4-1.789,4-4S325.213,709.831,323.001,709.831L323.001,709.831z
		 M323.001,734.096H93.178c-2.211,0-4,1.789-4,4c0,2.207,1.789,4,4,4h229.824c2.211,0,4-1.793,4-4
		C327.002,735.885,325.213,734.096,323.001,734.096L323.001,734.096z M134.542,566.178H343.94c2.211,0,4-1.789,4-4s-1.789-4-4-4
		H134.542c-2.211,0-4,1.789-4,4S132.33,566.178,134.542,566.178L134.542,566.178z M106.186,562.178c0,2.211,1.789,4,4,4h6.063
		c2.211,0,4-1.789,4-4s-1.789-4-4-4h-6.063C107.975,558.178,106.186,559.971,106.186,562.178L106.186,562.178z M343.94,582.444
		H116.249c-2.207,0-4,1.789-4,4c0,2.207,1.793,4,4,4H343.94c2.211,0,4-1.793,4-4C347.94,584.233,346.15,582.444,343.94,582.444
		L343.94,582.444z M343.94,606.706H114.116c-2.211,0-4,1.793-4,4c0,2.211,1.789,4,4,4H343.94c2.211,0,4-1.789,4-4
		C347.94,608.499,346.15,606.706,343.94,606.706L343.94,606.706z M372.205,524.878v17.25c0,2.21-1.793,4-4,4h-8.133v84.89h8.133
		c2.207,0,4,1.789,4,4v17.25c0,2.207-1.793,4-4,4h-16.942v13.25c0,2.207-1.789,4-4,4h-8.129v84.887h8.129c2.211,0,4,1.789,4,4v17.25
		c0,2.207-1.789,4-4,4H86.217c-37.328,0-67.695-30.367-67.695-67.695c0-34.067,25.301-62.325,58.098-67
		c-22.024-11.184-37.16-34.043-37.16-60.387c0-25.805,14.519-48.277,35.808-59.695H43.46c-2.208,0-4-1.79-4-4v-17.25
		c0-2.211,1.792-4,4-4h8.132v-84.887H43.46c-2.208,0-4-1.789-4-4v-17.25c0-2.211,1.792-4,4-4h261.05
		c37.328,0,67.696,30.367,67.696,67.695c0,25.801-14.52,48.274-35.809,59.692h31.809
		C370.413,520.878,372.205,522.671,372.205,524.878L372.205,524.878z M59.591,503.628h242.93c3.82,0,7.523-0.516,11.047-1.465
		c-3.824-6.828-10.024-20.969-10.024-40.977c0-16.57,6.868-33.226,10.481-40.848c-3.66-1.031-7.516-1.597-11.504-1.597H59.591
		V503.628z M321.517,423.249c-3.215,6.722-9.973,22.679-9.973,37.937c0,19.36,6.473,32.742,9.629,38.113
		c14.078-6.918,23.793-21.398,23.793-38.113C344.962,444.608,335.409,430.229,321.517,423.249L321.517,423.249z M107.155,520.878
		H304.51c32.918,0,59.696-26.778,59.696-59.692c0-32.918-26.778-59.695-59.696-59.695H47.46v9.25h255.062
		c6.438,0,12.594,1.226,18.258,3.433c0.203,0.059,0.394,0.145,0.59,0.235c18.504,7.48,31.593,25.625,31.593,46.777
		c0,21.125-13.062,39.25-31.527,46.75c-0.199,0.098-0.402,0.176-0.605,0.238c-5.68,2.223-11.852,3.454-18.309,3.454H47.46v9.25
		H107.155z M331.135,673.518H88.206c-3.989,0-7.844,0.563-11.508,1.598c3.613,7.617,10.48,24.273,10.48,40.844
		c0,20.011-6.195,34.148-10.023,40.976c3.527,0.953,7.226,1.469,11.047,1.469h242.929v-84.887H331.135z M69.553,754.077
		c3.153-5.367,9.629-18.75,9.629-38.117c0-15.297-6.758-31.227-9.972-37.938c-13.891,6.981-23.45,21.359-23.45,37.938
		C45.76,732.674,55.474,747.159,69.553,754.077L69.553,754.077z M343.264,656.268H86.217c-32.918,0-59.695,26.778-59.695,59.692
		c0,32.918,26.777,59.695,59.695,59.695h257.047v-9.25H88.206c-6.446,0-12.606-1.227-18.278-3.442
		c-0.258-0.074-0.511-0.167-0.75-0.296c-18.41-7.528-31.418-25.621-31.418-46.707c0-21.149,13.094-39.293,31.594-46.774
		c0.195-0.094,0.391-0.176,0.594-0.234c5.664-2.207,11.816-3.434,18.254-3.434h255.062V656.268z M352.073,546.128h-242.93
		c-3.988,0-7.844,0.566-11.508,1.597c3.617,7.621,10.485,24.278,10.485,40.848c0,20.012-6.2,34.148-10.024,40.976
		c3.524,0.95,7.227,1.469,11.047,1.469h242.93V546.128z M90.491,626.69c3.152-5.367,9.629-18.75,9.629-38.117
		c0-15.258-6.762-31.215-9.973-37.938c-13.891,6.985-23.449,21.36-23.449,37.938C66.697,605.288,76.416,619.772,90.491,626.69
		L90.491,626.69z M364.205,528.878H107.155c-32.914,0-59.695,26.781-59.695,59.695s26.781,59.691,59.695,59.691h257.051v-9.25
		H109.143c-6.445,0-12.605-1.226-18.277-3.441c-0.258-0.074-0.508-0.168-0.75-0.293c-18.41-7.527-31.418-25.625-31.418-46.707
		c0-21.18,13.125-39.34,31.664-46.805c0.168-0.074,0.336-0.152,0.512-0.203c5.668-2.211,11.828-3.437,18.269-3.437h255.063V528.878z
		 M67.724,438.792h209.399c2.21,0,4-1.793,4-4c0-2.211-1.79-4-4-4H67.724c-2.211,0-4,1.789-4,4
		C63.725,436.999,65.514,438.792,67.724,438.792L67.724,438.792z M295.417,438.792h6.062c2.211,0,4-1.793,4-4c0-2.211-1.789-4-4-4
		h-6.062c-2.211,0-4,1.789-4,4C291.416,436.999,293.206,438.792,295.417,438.792L295.417,438.792z M67.724,463.053h227.692
		c2.207,0,4-1.789,4-4c0-2.207-1.793-4-4-4H67.724c-2.211,0-4,1.793-4,4C63.725,461.264,65.514,463.053,67.724,463.053
		L67.724,463.053z M297.549,479.319H67.724c-2.211,0-4,1.789-4,4c0,2.207,1.789,4,4,4h229.824c2.207,0,4-1.793,4-4
		C301.549,481.108,299.756,479.319,297.549,479.319L297.549,479.319z M297.549,479.319"/>
</g>
<g transform="translate(1 1)">
	<path fill="#010101" stroke="#FFFFFF" stroke-miterlimit="10" d="M234.114,383.512h-84.291c-5.586,0-10.663-3.047-13.202-8.124
		c-0.508-1.523-2.031-2.539-3.554-2.539l-64.488-4.57c-7.109-1.523-11.171-6.093-11.171-12.187c0-7.617,6.093-13.202,13.202-13.202
		h247.288c7.617,0,13.202,6.093,13.202,13.202c0,6.093-4.062,10.663-11.171,12.187h-0.508l-69.058,4.57
		c-1.523,0-3.047,1.016-3.554,2.539C244.777,380.466,239.7,383.512,234.114,383.512z M70.102,358.124l63.472,4.57
		c5.078,0.508,9.648,3.554,12.187,8.124c1.016,1.523,2.539,2.539,4.062,2.539h84.799c1.523,0,3.047-1.016,4.062-2.539
		c2.539-4.57,7.109-7.617,12.187-8.124l68.042-4.57c2.539-0.508,2.539-1.523,2.539-2.031c0-1.523-1.523-3.047-3.047-3.047H70.61
		c-1.523,0-3.047,1.523-3.047,3.047C67.563,356.6,67.563,357.616,70.102,358.124z"/>
	<path fill="#010101" stroke="#FFFFFF" stroke-miterlimit="10" d="M194.507,180.401c-1.523,0-2.539-0.508-3.554-1.523
		c-7.617-8.124-11.679-16.249-11.679-24.373c0-8.124,4.062-15.741,11.679-23.358c5.586-5.078,8.632-10.663,8.632-16.249
		c0-5.586-3.047-11.171-8.632-17.264c-2.031-2.031-2.031-5.078,0-7.109c2.031-2.031,5.078-2.031,7.109,0
		c8.124,7.617,11.679,16.249,11.679,24.373s-4.062,16.249-11.679,23.358c-5.586,5.078-8.632,10.663-8.632,16.249
		s3.047,11.171,8.632,17.264c2.031,2.031,2.031,5.078,0,7.109C197.046,179.894,196.031,180.401,194.507,180.401z"/>
	<path fill="#010101" stroke="#FFFFFF" stroke-miterlimit="10" d="M250.363,180.401c-1.523,0-2.539-0.508-3.554-1.523
		c-7.617-8.124-11.679-16.249-11.679-24.373c0-8.124,4.062-15.741,11.679-23.358c5.586-5.586,8.632-10.663,8.632-16.249
		c0-5.586-3.047-11.171-8.632-17.264c-2.031-2.031-2.031-5.078,0-7.109c2.031-2.031,5.078-2.031,7.109,0
		c8.124,7.617,11.679,15.741,11.679,24.373c0,8.124-4.062,16.249-12.187,23.358c-5.586,5.078-8.632,10.663-8.632,16.249
		s3.047,11.171,8.632,17.264c2.031,2.031,2.031,5.078,0,7.109C252.902,179.894,251.378,180.401,250.363,180.401z"/>
	<path fill="#010101" stroke="#FFFFFF" stroke-miterlimit="10" d="M143.73,180.401c-1.523,0-2.539-0.508-3.554-1.523
		c-7.617-8.124-11.679-16.249-11.679-24.373c0-8.124,4.062-15.741,11.679-23.358c5.586-5.586,8.632-10.663,8.632-16.249
		c0-5.586-3.047-11.171-8.632-17.264c-2.031-2.031-2.031-5.078,0-7.109c2.031-2.031,5.078-2.031,7.109,0
		c8.124,7.617,11.679,15.741,11.679,24.373c0,8.124-4.062,16.249-12.187,23.358c-5.586,5.078-8.632,10.663-8.632,16.249
		s3.047,11.171,8.632,17.264c2.031,2.031,2.031,5.078,0,7.109C146.269,179.894,144.745,180.401,143.73,180.401z"/>
	<path fill="#010101" stroke="#FFFFFF" stroke-miterlimit="10" d="M194.507,353.046c-110.695,0-126.437-71.597-126.944-142.178
		c0-2.539,1.016-5.078,3.047-7.109c2.031-2.031,4.57-3.047,7.109-3.047h233.578c2.539,0,5.078,1.016,7.109,3.047
		s3.047,4.57,3.047,7.109C320.944,281.449,305.203,353.046,194.507,353.046z M77.719,210.868
		c0.508,68.55,15.233,132.022,116.789,132.022s116.281-63.472,116.789-132.022H77.719z"/>
	<path fill="#010101" d="M278.798,318.517l8.124-9.648c20.819-25.897,24.373-62.964,24.881-92.923v-3.554l4.062-1.523h1.016
		c16.757,0,30.467,18.28,30.467,40.622c0,28.943-17.264,60.426-55.855,65.503L278.798,318.517z M321.452,222.039
		c-1.016,26.404-4.062,56.871-19.296,81.752c25.389-8.632,34.529-32.498,34.529-52.301
		C336.685,237.272,330.084,225.086,321.452,222.039z"/>
	<path fill="#010101" stroke="#FFFFFF" stroke-miterlimit="10" d="M164.041,327.657c-0.508,0-0.508,0-1.016,0
		c-40.114-7.109-61.949-29.959-70.073-75.151c-0.508-2.539,1.523-5.586,4.062-6.093c2.539-0.508,5.586,1.523,6.093,4.062
		c7.617,40.622,25.897,60.933,61.949,67.027c2.539,0.508,4.57,3.047,4.062,6.093C168.611,326.134,166.58,327.657,164.041,327.657z"
		/>
</g>
<g>
	<path fill="#0A0A0B" stroke="#FFFFFF" stroke-width="3.6661" stroke-miterlimit="10" d="M771.821,782.456
		c-122.214,0-244.428,0-366.642,0c-2.382-0.551-3.849-2.018-4.4-4.4c0-101.438,0-202.875,0-304.313
		c0.808-3.502,3.337-4.852,6.602-5.314c1.941-0.274,3.892-0.25,5.842-0.25c18.657-0.005,37.314,0.009,55.971-0.01
		c5.001-0.005,5.196-0.194,5.204-5.091c0.025-14.755,0.004-29.51,0.012-44.265c0.001-1.95-0.041-3.907,0.409-5.825
		c0.677-2.886,1.964-5.253,5.154-5.974c26.398,0,52.796,0,79.195,0c4.386,1.118,5.458,4.464,5.521,8.386
		c0.129,8.057,0.035,16.116,0.049,24.174c0.014,8.18,0.068,16.362-0.03,24.541c-0.036,2.973,1.063,4.11,4.067,4.09
		c13.064-0.087,26.128-0.001,39.192-0.061c3.788-0.017,4.177-0.466,4.271-4.231c0.073-2.929,0.004-5.86,0.024-8.791
		c0.064-9.188,2.652-11.848,11.756-11.87c17.704-0.043,35.408-0.01,53.112-0.015c2.32-0.001,4.642-0.06,6.959-0.001
		c2.66,0.067,3.715-1.165,3.698-3.758c-0.026-4.15-0.087-8.304,0.034-12.453c0.163-5.605,2.675-8.189,8.287-8.641
		c1.096-0.088,2.196-0.075,3.295-0.075c22.221-0.003,44.443-0.004,66.664,0c0.855,0,1.709,0.023,2.563,0.039
		c3.825,0.072,6.567,1.62,7.59,5.531c0,118.059,0,236.117,0,354.176C775.67,780.438,774.203,781.905,771.821,782.456z"/>
	<path fill="#F2F2F3" stroke="#FFFFFF" stroke-width="3.6661" stroke-miterlimit="10" d="M400.78,778.056
		c1.177,1.756,2.644,3.223,4.4,4.4C401.418,783.284,399.952,781.818,400.78,778.056z"/>
	<path fill="#F2F2F3" stroke="#FFFFFF" stroke-width="3.6661" stroke-miterlimit="10" d="M771.821,782.456
		c1.756-1.177,3.223-2.644,4.4-4.4C777.049,781.818,775.582,783.284,771.821,782.456z"/>
	<path fill="#FFFFFF" stroke="#FFFFFF" stroke-width="3.6661" stroke-miterlimit="10" d="M488.369,594.357
		c0-56.941,0.034-113.881-0.085-170.822c-0.007-3.431,0.97-4.137,4.216-4.109c18.449,0.158,36.901,0.129,55.351,0.015
		c2.551-0.016,3.226,0.613,3.225,3.202c-0.069,114.736-0.069,229.473,0.001,344.209c0.002,2.623-0.739,3.19-3.251,3.175
		c-18.572-0.109-37.146-0.134-55.718,0.017c-3.023,0.025-3.821-0.676-3.816-3.767C488.396,708.971,488.369,651.664,488.369,594.357z
		"/>
	<path fill="#FFFFFF" stroke="#FFFFFF" stroke-width="3.6661" stroke-miterlimit="10" d="M625.983,613.388
		c0-50.829,0.038-101.659-0.087-152.488c-0.008-3.331,0.895-3.981,4.045-3.954c18.326,0.158,36.656,0.154,54.982,0.003
		c3.097-0.026,3.776,0.883,3.774,3.866c-0.079,101.781-0.078,203.562-0.005,305.342c0.002,2.876-0.444,3.931-3.681,3.899
		c-18.448-0.181-36.9-0.169-55.349-0.008c-3.088,0.027-3.759-0.79-3.753-3.806C626.012,715.291,625.983,664.34,625.983,613.388z"/>
	<path fill="#FFFFFF" stroke="#FFFFFF" stroke-width="3.6661" stroke-miterlimit="10" d="M701.182,600.843
		c0-54.975,0.029-109.95-0.074-164.925c-0.006-3.148,0.645-4.042,3.939-4.009c18.445,0.187,36.894,0.152,55.34,0.022
		c2.713-0.019,3.416,0.606,3.414,3.378c-0.079,110.439-0.078,220.877-0.004,331.316c0.002,2.694-0.572,3.437-3.36,3.416
		c-18.446-0.142-36.894-0.154-55.34,0.005c-3.133,0.027-4.007-0.62-4-3.912C701.216,711.038,701.182,655.941,701.182,600.843z"/>
	<path fill="#FFFFFF" stroke="#FFFFFF" stroke-width="3.6661" stroke-miterlimit="10" d="M613.48,626.245
		c0,46.666-0.03,93.332,0.071,139.997c0.006,2.965-0.571,3.856-3.709,3.813c-14.29-0.196-28.585-0.14-42.877-0.034
		c-2.489,0.019-3.527-0.25-3.524-3.239c0.097-93.82,0.095-187.64,0.007-281.46c-0.003-2.92,0.953-3.335,3.527-3.314
		c14.292,0.118,28.587,0.162,42.877-0.025c3.182-0.042,3.7,0.986,3.694,3.898C613.452,532.669,613.48,579.457,613.48,626.245z"/>
	<path fill="#FFFFFF" stroke="#FFFFFF" stroke-width="3.6661" stroke-miterlimit="10" d="M475.819,625.881
		c0,46.801-0.033,93.601,0.076,140.402c0.007,3.056-0.725,3.791-3.773,3.765c-18.572-0.158-37.147-0.135-55.72-0.015
		c-2.578,0.017-3.196-0.638-3.194-3.204c0.071-93.846,0.077-187.691-0.016-281.537c-0.003-2.973,1.039-3.29,3.551-3.278
		c18.451,0.093,36.903,0.126,55.353-0.024c3.084-0.025,3.795,0.877,3.789,3.856C475.791,532.524,475.819,579.203,475.819,625.881z"
		/>
	<path fill="#0B0B0B" stroke="#FFFFFF" stroke-width="3.6661" stroke-miterlimit="10" d="M544.646,457.266
		c0.002,5.74,0.043,11.48-0.011,17.219c-0.049,5.234-2.122,7.506-7.218,7.545c-11.845,0.092-23.692,0.084-35.537,0
		c-4.892-0.035-7.196-2.374-7.22-7.21c-0.06-11.846-0.06-23.692,0-35.537c0.024-4.787,2.418-7.224,7.258-7.258
		c11.845-0.084,23.692-0.088,35.537,0.001c4.829,0.036,7.107,2.428,7.171,7.288C544.704,445.298,544.645,451.282,544.646,457.266z"
		/>
	<path fill="#0D0D0D" stroke="#FFFFFF" stroke-width="3.6661" stroke-miterlimit="10" d="M519.945,726.072
		c5.36,0,10.721,0.068,16.078-0.037c1.877-0.037,2.458,0.503,2.529,2.449c0.37,10.123,0.431,10.121-9.793,10.121
		c-8.405,0-16.811-0.058-25.214,0.042c-2.009,0.024-2.65-0.492-2.693-2.602c-0.201-9.974-0.272-9.973,9.591-9.973
		C513.611,726.072,516.778,726.072,519.945,726.072z"/>
	<path fill="#0C0C0C" stroke="#FFFFFF" stroke-width="3.6661" stroke-miterlimit="10" d="M519.647,757.477
		c-5.484,0-10.968-0.059-16.451,0.035c-1.715,0.029-2.241-0.454-2.334-2.233c-0.54-10.309-0.594-10.306,9.544-10.306
		c8.286,0,16.575,0.089,24.859-0.055c2.445-0.042,3.591,0.455,3.27,3.146c-0.357,2.993,1.25,6.894-0.605,8.803
		c-1.869,1.923-5.771,0.474-8.778,0.584C525.987,757.567,522.815,757.477,519.647,757.477z"/>
	<path fill="#0B0B0B" stroke="#FFFFFF" stroke-width="3.6661" stroke-miterlimit="10" d="M632.387,494.748
		c-0.081-13.682,10.869-24.826,24.722-25.161c13.495-0.326,25.291,11.397,25.245,25.089c-0.046,13.615-11.401,24.951-24.99,24.949
		C643.676,519.623,632.469,508.46,632.387,494.748z"/>
	<path fill="#0D0D0D" stroke="#FFFFFF" stroke-width="3.6661" stroke-miterlimit="10" d="M657.461,738.605
		c-5.238,0-10.48-0.118-15.712,0.052c-2.441,0.08-3.601-0.452-3.283-3.148c0.353-2.993-1.243-6.879,0.602-8.808
		c1.868-1.953,5.767-0.562,8.768-0.596c8.526-0.096,17.054,0.024,25.579-0.076c2.02-0.023,2.68,0.494,2.733,2.619
		c0.25,9.958,0.321,9.956-9.551,9.956C663.551,738.605,660.506,738.605,657.461,738.605z"/>
	<path fill="#0C0C0C" stroke="#FFFFFF" stroke-width="3.6661" stroke-miterlimit="10" d="M657.451,744.973
		c5.362,0,10.726,0.099,16.084-0.049c2.125-0.059,2.729,0.626,2.594,2.674c-0.209,3.151,1.018,7.277-0.553,9.217
		c-1.656,2.045-5.946,0.599-9.078,0.632c-8.407,0.09-16.818-0.055-25.224,0.086c-2.308,0.039-2.993-0.667-2.813-2.892
		c0.185-2.3,0.212-4.643-0.006-6.938c-0.227-2.391,0.774-2.829,2.912-2.775C646.725,745.064,652.089,744.973,657.451,744.973z"/>
	<path fill="#0B0B0B" stroke="#FFFFFF" stroke-width="3.6661" stroke-miterlimit="10" d="M757.41,650.799
		c0,17.949,0.007,35.898-0.004,53.848c-0.004,7.096-1.822,8.928-8.813,8.932c-10.989,0.007-21.979,0.014-32.968-0.004
		c-6.021-0.01-8.271-2.169-8.274-8.07c-0.02-36.265-0.018-72.529-0.003-108.794c0.003-5.955,2.21-8.213,8.148-8.241
		c11.233-0.054,22.467-0.051,33.7-0.004c6.156,0.026,8.199,2.162,8.206,8.486C757.424,614.901,757.41,632.85,757.41,650.799z"/>
	<path fill="#0D0D0D" stroke="#FFFFFF" stroke-width="3.6661" stroke-miterlimit="10" d="M732.579,738.605
		c-5.485,0-10.971-0.073-16.454,0.04c-1.883,0.039-2.428-0.49-2.482-2.423c-0.286-10.152-0.347-10.15,9.757-10.15
		c8.288,0,16.578,0.09,24.864-0.057c2.398-0.042,3.267,0.62,3.008,3.033c-0.333,3.109,1.31,7.279-0.719,9.068
		c-1.737,1.532-5.798,0.451-8.832,0.481C738.674,738.629,735.626,738.605,732.579,738.605z"/>
	<path fill="#0C0C0C" stroke="#FFFFFF" stroke-width="3.6661" stroke-miterlimit="10" d="M732.351,757.477
		c-5.364,0-10.73-0.101-16.09,0.05c-2.136,0.06-2.731-0.642-2.601-2.682c0.201-3.143-1.021-7.245,0.541-9.195
		c1.656-2.067,5.929-0.609,9.052-0.644c8.41-0.095,16.824,0.052,25.233-0.088c2.275-0.038,3.032,0.585,2.79,2.847
		c-0.333,3.115,1.278,7.125-0.634,9.149c-1.774,1.878-5.768,0.447-8.782,0.542C738.692,757.554,735.52,757.477,732.351,757.477z"/>
	<path fill="#0B0B0B" stroke="#FFFFFF" stroke-width="3.6661" stroke-miterlimit="10" d="M607.226,513.853
		c-0.447,10.358-8.987,18.586-19.005,18.311c-10.408-0.286-18.867-9.101-18.457-19.232c0.427-10.541,9.112-18.701,19.379-18.208
		C599.532,495.223,607.659,503.82,607.226,513.853z"/>
	<path fill="#0D0D0D" stroke="#FFFFFF" stroke-width="3.6661" stroke-miterlimit="10" d="M588.484,757.477
		c-5.361,0-10.723-0.073-16.082,0.038c-1.952,0.04-2.728-0.368-2.784-2.563c-0.259-9.983-0.336-9.981,9.578-9.981
		c8.285,0,16.571,0.082,24.854-0.051c2.403-0.039,3.364,0.402,3.346,3.118c-0.062,9.437,0.054,9.438-9.408,9.438
		C594.82,757.477,591.652,757.477,588.484,757.477z"/>
	<path fill="#0D0D0E" stroke="#FFFFFF" stroke-width="3.6661" stroke-miterlimit="10" d="M588.323,738.606
		c-5.238,0-10.477-0.083-15.712,0.041c-2.081,0.049-2.973-0.302-3.003-2.733c-0.122-9.843-0.22-9.842,9.75-9.842
		c8.283,0,16.567,0.068,24.848-0.045c2.238-0.031,3.443,0.349,3.147,2.934c-0.357,3.111,1.326,7.273-0.709,9.086
		c-1.732,1.543-5.79,0.508-8.82,0.549C594.658,738.639,591.49,738.606,588.323,738.606z"/>
	<path fill="#0B0B0B" stroke="#FFFFFF" stroke-width="3.6661" stroke-miterlimit="10" d="M419.591,650.831
		c-0.001-17.827-0.009-35.654,0.003-53.481c0.005-6.994,1.899-8.883,8.911-8.894c10.867-0.016,21.734-0.027,32.602,0.006
		c6.422,0.02,8.548,2.167,8.549,8.583c0.009,36.02,0.009,72.041-0.001,108.061c-0.002,6.308-2.1,8.457-8.248,8.468
		c-11.233,0.019-22.467,0.021-33.7,0c-6.03-0.011-8.093-2.057-8.103-8.163C419.573,687.218,419.592,669.024,419.591,650.831z"/>
	<path fill="#0D0D0D" stroke="#FFFFFF" stroke-width="3.6661" stroke-miterlimit="10" d="M444.798,738.605
		c-5.485,0-10.972-0.092-16.454,0.046c-2.083,0.052-2.762-0.577-2.623-2.65c0.211-3.144-0.998-7.22,0.558-9.208
		c1.653-2.112,5.915-0.652,9.029-0.688c8.409-0.097,16.822,0.055,25.229-0.091c2.317-0.04,3.007,0.68,2.795,2.885
		c-0.299,3.118,1.276,7.128-0.616,9.145c-1.758,1.875-5.764,0.442-8.778,0.539C450.895,738.682,447.845,738.605,444.798,738.605z"/>
	<path fill="#0C0C0C" stroke="#FFFFFF" stroke-width="3.6661" stroke-miterlimit="10" d="M444.408,757.477
		c-5.364,0-10.73-0.098-16.09,0.048c-2.136,0.058-2.723-0.677-2.593-2.695c0.203-3.139-0.987-7.232,0.579-9.182
		c1.657-2.063,5.919-0.609,9.036-0.644c8.41-0.094,16.824,0.06,25.232-0.092c2.323-0.042,2.981,0.659,2.763,2.865
		c-0.307,3.117,1.266,7.137-0.627,9.144c-1.76,1.866-5.774,0.443-8.792,0.534C450.749,757.551,447.578,757.477,444.408,757.477z"/>
	<path fill="#FFFFFF" stroke="#FFFFFF" stroke-width="3.6661" stroke-miterlimit="10" d="M507.127,456.98
		c0-3.412,0.081-6.826-0.034-10.234c-0.058-1.731,0.468-2.309,2.249-2.285c6.822,0.094,13.648,0.12,20.47-0.013
		c2.093-0.041,2.354,0.831,2.335,2.577c-0.075,6.701-0.099,13.405,0.014,20.104c0.033,1.922-0.517,2.477-2.443,2.444
		c-6.7-0.115-13.405-0.139-20.104,0.008c-2.213,0.048-2.602-0.804-2.524-2.734C507.224,463.564,507.127,460.27,507.127,456.98z"/>
	<path fill="#FFFFFF" stroke="#FFFFFF" stroke-width="3.6661" stroke-miterlimit="10" d="M657.362,507.06
		c-7.002,0.005-12.514-5.574-12.452-12.6c0.061-6.808,5.578-12.292,12.399-12.324c6.883-0.033,12.632,5.761,12.539,12.638
		C669.757,501.542,664.154,507.055,657.362,507.06z"/>
	<path fill="#FFFFFF" stroke="#FFFFFF" stroke-width="3.6661" stroke-miterlimit="10" d="M719.844,651.102
		c0-15.631,0.059-31.262-0.059-46.891c-0.019-2.552,0.657-3.323,3.233-3.251c6.467,0.181,12.943,0.126,19.414,0.02
		c1.9-0.031,2.486,0.509,2.483,2.45c-0.056,31.75-0.056,63.499,0.003,95.249c0.004,1.929-0.524,2.473-2.442,2.44
		c-6.592-0.113-13.192-0.178-19.78,0.023c-2.599,0.079-2.906-0.945-2.895-3.149C719.881,682.363,719.844,666.732,719.844,651.102z"
		/>
	<path fill="#FEFEFE" stroke="#FFFFFF" stroke-width="3.6661" stroke-miterlimit="10" d="M588.569,507.279
		c3.368,0.035,6.007,2.649,6.056,6c0.051,3.495-2.726,6.301-6.194,6.26c-3.475-0.041-6.177-2.895-6.056-6.398
		C582.49,509.809,585.199,507.245,588.569,507.279z"/>
	<path fill="#FFFFFF" stroke="#FFFFFF" stroke-width="3.6661" stroke-miterlimit="10" d="M457.157,651.205
		c0,15.508-0.074,31.018,0.07,46.525c0.025,2.731-0.622,3.518-3.392,3.418c-6.22-0.226-12.455-0.158-18.68-0.024
		c-2.239,0.048-3.103-0.367-3.095-2.913c0.098-31.383,0.086-62.766,0.019-94.149c-0.005-2.281,0.446-3.177,2.96-3.102
		c6.344,0.188,12.703,0.205,19.046-0.004c2.736-0.09,3.137,0.956,3.122,3.36C457.109,619.943,457.157,635.574,457.157,651.205z"/>
</g>
</svg>
