<?xml version="1.0" encoding="utf-8"?>
<!-- Generator: Adobe Illustrator 17.0.0, SVG Export Plug-In . SVG Version: 6.00 Build 0)  -->
<!DOCTYPE svg PUBLIC "-//W3C//DTD SVG 1.1//EN" "http://www.w3.org/Graphics/SVG/1.1/DTD/svg11.dtd">
<svg version="1.1" id="Layer_1" xmlns="http://www.w3.org/2000/svg" xmlns:xlink="http://www.w3.org/1999/xlink" x="0px" y="0px"
	 width="1073.133px" height="259.803px" viewBox="0 0 1073.133 259.803" enable-background="new 0 0 1073.133 259.803"
	 xml:space="preserve">
<g>
	<path fill="#FFFFFF" d="M4.373,75.826h25.3L41.48,145.4c2.319,14.758,4.638,29.516,6.958,44.063h0.843
		c2.741-14.547,5.903-29.516,8.855-44.063l17.077-69.574h21.083l17.077,69.574c2.952,14.336,6.114,29.305,9.066,44.063h0.843
		c2.319-14.758,4.428-29.516,6.747-44.063l11.807-69.574h23.613l-26.564,137.883h-30.36l-17.077-72.526
		c-2.319-10.752-4.216-21.294-6.114-31.835h-0.843c-1.897,10.542-3.795,21.083-6.114,31.835l-16.656,72.526H31.781L4.373,75.826z"/>
	<path fill="#FFFFFF" d="M186.322,75.826h24.457v137.883h-24.457V75.826z"/>
	<path fill="#FFFFFF" d="M249.782,179.344c9.909,9.276,23.191,15.601,36.052,15.601c15.391,0,24.035-6.957,24.035-17.709
		c0-11.385-8.855-14.969-21.505-20.24l-18.764-8.223c-13.704-5.692-27.83-16.445-27.83-36.685c0-21.926,19.396-38.792,46.172-38.792
		c16.234,0,31.835,6.747,42.587,17.499l-12.649,15.601c-8.644-7.379-18.132-11.806-29.938-11.806
		c-13.072,0-21.505,6.114-21.505,16.234c0,10.752,10.542,14.758,21.926,19.396l18.553,7.801c16.445,6.957,27.83,17.288,27.83,37.317
		c0,22.348-18.553,40.901-49.545,40.901c-18.553,0-36.474-7.379-49.545-20.24L249.782,179.344z"/>
	<path fill="#FFFFFF" d="M359.414,75.826h82.856v20.662h-58.4v35.208h49.546v20.662H383.87v40.69h60.509v20.662h-84.965V75.826z"/>
	<path fill="#FFFFFF" d="M471.999,75.826h44.063c28.252,0,49.124,8.644,49.124,33.944c0,13.071-7.379,25.721-23.613,29.938v0.843
		c19.818,3.373,30.992,14.125,30.992,32.679c0,27.619-22.559,40.479-52.919,40.479h-47.647V75.826z M513.743,132.961
		c19.396,0,27.408-7.379,27.408-20.24c0-12.65-8.854-17.921-26.775-17.921h-17.921v38.161H513.743z M517.117,194.735
		c20.239,0,31.413-7.59,31.413-23.191c0-14.336-10.963-21.083-31.413-21.083h-20.662v44.274H517.117z"/>
	<path fill="#FFFFFF" d="M856.542,75.826h24.456v62.617h0.633l49.124-62.617h26.986l-42.377,53.762l49.545,84.122h-26.986
		l-37.106-64.936l-19.818,24.667v40.269h-24.456V75.826z"/>
	<path fill="#FFFFFF" d="M982.622,179.344c9.908,9.276,23.191,15.601,36.052,15.601c15.391,0,24.034-6.957,24.034-17.709
		c0-11.385-8.854-14.969-21.504-20.24l-18.765-8.223c-13.704-5.692-27.829-16.445-27.829-36.685
		c0-21.926,19.396-38.792,46.172-38.792c16.233,0,31.835,6.747,42.588,17.499l-12.65,15.601
		c-8.644-7.379-18.131-11.806-29.938-11.806c-13.071,0-21.505,6.114-21.505,16.234c0,10.752,10.542,14.758,21.927,19.396
		l18.553,7.801c16.444,6.957,27.83,17.288,27.83,37.317c0,22.348-18.554,40.901-49.546,40.901c-18.553,0-36.474-7.379-49.545-20.24
		L982.622,179.344z"/>
</g>
<g>
	<path fill-rule="evenodd" clip-rule="evenodd" fill="#FFFFFF" d="M824.637,75.339c-0.005-5.013-3.017-7.83-8.164-7.987
		c-2.095-0.063-4.194-0.01-6.51-0.01c0-1.45,0.009-2.298-0.001-3.148c-0.094-8.141-1.596-10.75-9.376-13.306
		c-5.818-1.911-11.982-2.744-17.905-4.37c-2.298-0.629-4.463-1.957-6.505-3.255c-3.947-2.508-7.534-5.716-11.722-7.66
		c-2.472-1.147-3.728-2.144-4.431-4.777c-3.535-13.229-16.609-21.456-29.908-18.062c-5.85,1.494-11.158,5.108-17.157,7.979
		c0.034,0.038,0.069,0.076,0.103,0.114c0.014,0.015,0.027,0.029,0.041,0.044c0.317,0.25,0.154,0.16,0,0
		c-0.049-0.039-0.108-0.085-0.181-0.14c0.012-0.006,0.024-0.012,0.037-0.018c-12.681-14.431-40.511-11.334-45.517,11.833
		c-0.225,1.043-1.583,2.008-2.626,2.677c-4.039,2.591-8.563,4.596-12.117,7.718c-2.316,2.034-4.466,3.168-7.375,3.652
		c-5.083,0.847-10.198,1.696-15.151,3.079c-9.605,2.68-11.701,5.613-11.986,15.467c-0.016,0.555-0.11,1.107-0.221,2.169
		c-1.954,0-3.523-0.01-5.094,0.001c-6.761,0.049-9.348,2.64-9.37,9.406c-0.014,4.464-0.002,8.927-0.002,13.39
		c0,39.738-0.006,79.474,0.006,119.21c0.002,6.466,2.68,9.111,9.17,9.167c2.16,0.017,4.319,0.002,6.479,0.002h73.835
		c0.756,1.409,1.385,2.699,2.117,3.927c8.525,14.284,29.699,14.28,37.84-0.192c1.676-2.978,3.398-3.825,6.632-3.807
		c25.339,0.13,50.678,0.084,76.017,0.062c5.927-0.005,9.033-2.655,9.039-7.977C824.68,165.466,824.678,120.403,824.637,75.339z
		 M781.828,53.198c6.132,1.732,12.126,3.431,18.126,5.113c2.843,0.797,2.52,3.074,2.52,5.239
		c-0.006,21.306-0.004,42.613-0.004,63.92v63.343c-28.376-7.384-56.391-7.439-84.605,0.044V155.45
		c5.292,2.341,10.475,5.542,16.108,6.948c13.164,3.283,26.539-4.001,32.297-16.368c0.887-1.903,2.941-3.723,4.896-4.593
		c11.968-5.326,19.797-19.918,12.245-34.713c10.85-11.688,11.801-28.658-3.122-40.635C780.768,62.072,781.239,58.134,781.828,53.198
		z M722.448,23.909c6.079-4.939,13.624-6.839,20.56-4.567s11.235,20.455,11.477,23.334c2.534-0.402,4.736-1.174,7.484-0.157
		c16.815,7.311,8.683,24.042,7.064,27.072c7.186,1.537,12.225,5.911,14.436,13.629c2.055,15.59-8.285,18.554-9.759,18.037
		c6.492,7.599,6.958,18.276,3.332,24.924c-1.686,3.09-4.702,5.456-7.101,8.14c-0.718-1.81-1.38-3.53-2.022-5.194
		c-0.009-0.019-0.014-0.04-0.023-0.058c-0.323-0.839-0.644-1.667-0.961-2.478c-0.332,0.273-4.194,15.153-11.208,22.182
		c-6.112,6.649-16.929,8.949-24.939,5.302c-9.38-4.269-14.099-12.923-12.778-23.816h10.799c0,2.212-0.463,4.585,0.153,6.632
		c0.461,1.531,0.757,3.993,3.545,3.945c2.788-0.049,3.303-2.216,3.492-3.534c0.506-3.527,0.371-7.179,0.162-10.763
		c-0.158-2.69-1.853-3.987-4.67-3.925c-4.433,0.098-8.871,0.026-13.572,0.026v-7.386c4.241,0,8.495,0.015,12.75-0.005
		c2.546-0.012,5.313-0.151,5.31-3.537c-0.002-3.534-2.697-3.846-5.527-3.784c-4.025,0.087-8.052,0.022-12.393,0.022v-11.15
		c5.585,0,10.761,0.015,15.939-0.005c5.159-0.019,5.902-0.788,5.957-6.06c0.015-1.551,0.001-3.103,0.001-5.17
		c4.661,0,8.938-0.029,13.213,0.011c2.501,0.024,4.853-0.337,4.922-3.432c0.076-3.398-2.44-3.715-5.09-3.696
		c-4.895,0.035-9.792-0.008-14.686,0.014c-4.868,0.022-5.789,0.924-5.9,5.717c-0.036,1.559-0.007,3.12-0.007,4.885h-14.583V70.879
		c4.229,0,8.338-0.001,12.447,0c2.61,0,5.62,0.343,5.704-3.455c0.083-3.773-2.819-3.68-5.51-3.662
		c-4.019,0.025-12.438,0.006-12.438,0.006l-0.062-26.225C717.967,37.543,718.158,27.395,722.448,23.909z M657.194,67.352
		c1.141-0.733,1.908-1.16,1.408-2.688c-0.362-1.104-1.122-0.996-2.166-0.956c-1.397,0.052-6.051-7.054,2.996-17.454
		c4.687-4.383,10.225-5.63,16.136-3.914c0.221-0.278,0.416-0.544,0.572-0.78c1.249-1.892-0.352-6.79-0.713-6.91
		c-0.039-8.819,8.553-15.531,18.09-15.206c9.679,0.327,18.422,6.425,16.776,18.15H699.51c-0.047-0.866,0.609-7.542-3.898-7.217
		c-4.507,0.326-3.753,7.438-3.729,8.875c0.087,5.063,0.995,5.967,6.127,6.011c4.001,0.033,8.003,0.006,12.248,0.006l0.057,25.622
		c-5.028,0-9.87-0.004-14.711,0.002c-6.399,0.007-6.99,0.548-7.716,7.563c-3.754,0-7.583-0.041-11.41,0.013
		c-2.785,0.041-6.415-0.7-6.364,3.652c0.046,4.028,3.482,3.407,6.151,3.435c3.887,0.042,7.774,0.012,11.661,0.011
		c7.116-0.002,7.116-0.002,8.251-6.922h14.005l0.118,43.679h-14.558c0-2.026,0.058-3.993-0.015-5.956
		c-0.095-2.556-0.428-4.579-3.901-4.521c-3.473,0.058-3.621,4.72-3.62,4.863c0.063,14.262-1.542,13.299,12.722,13.239
		c2.997-0.013,5.995-0.001,8.884-0.001c2.1,9.191-2.355,18.657-10.631,23.247c-8.335,4.622-19.451,2.963-26.244-3.918
		c-1.533-1.553-6.966-7.553-7.041-9.913c-0.078-2.461,0.893-5.177,0.035-7.571c-0.787-2.194-5.312-0.987-6.601,0.056
		c-0.07,0.056-0.14,0.104-0.212,0.149c-0.187,0.46-0.374,0.918-0.563,1.379c-4.547-1.387-8.721-6.775-9.271-12.844
		c-0.463-5.113,0.846-9.322,3.73-12.703c0.03-1.923-0.04-3.839-0.461-5.735c-0.296-1.333-0.563-2.662-1.486-2.884
		c-0.923-0.221-0.948,0.495-1.428,0.735C641.913,93.98,639.382,75.789,657.194,67.352z M630.085,57.677
		c5.389-1.335,10.76-2.744,16.277-4.159c0.523,4.463,0.968,8.259,1.473,12.56c-13.741,12.096-15.011,26.971-3.067,40.438
		c-3.97,8.077-4.273,16.357,0.419,24.429c2.909,5.005,7.181,8.485,12.568,10.689c1.323,0.542,2.996,1.535,3.441,2.722
		c7.165,19.114,32.141,25.412,47.699,10.71c0.272-0.257,0.701-0.349,1.365-0.665v36.404c-27.957-7.351-55.857-7.4-84.307-0.06
		c-0.084-1.393-0.249-2.863-0.249-4.333c-0.013-40.715,0.037-81.431-0.094-122.145C625.598,60.667,626.567,58.549,630.085,57.677z
		 M816.994,211.207h-5.141c-25.339,0-50.677,0.058-76.014-0.058c-4.193-0.021-6.874,0.776-8.286,5.404
		c-1.793,5.876-7.65,9.316-13.72,9.217c-6.469-0.102-11.596-3.622-13.559-10.019c-1.089-3.548-2.936-4.625-6.515-4.608
		c-25.77,0.122-51.539,0.065-77.309,0.064h-5.315V74.941h7.064v5.042c0,38.872-0.002,77.742,0.006,116.613
		c0,1.438-0.276,3.025,0.24,4.267c0.481,1.158,1.739,2.526,2.856,2.736c1.097,0.207,2.559-0.76,3.663-1.504
		c2.377-1.603,4.419-4.398,6.967-4.926c9.105-1.885,18.321-3.647,27.575-4.303c13.797-0.979,27.6-0.178,41.133,3.163
		c4.228,1.044,8.732,1.444,10.919,6.359c0.319,0.716,4.561,0.871,4.908,0.205c3.011-5.794,8.821-6.265,13.923-7.198
		c20.978-3.839,42.011-4.119,62.922,0.711c3.977,0.918,8.241,1.481,10.277,6.04c0.357,0.798,2.362,1.523,3.282,1.239
		c1.159-0.362,2.368-1.636,2.849-2.808c0.512-1.244,0.237-2.829,0.238-4.267c0.007-38.582,0.005-77.165,0.005-115.749v-5.533h7.032
		V211.207z"/>
</g>
</svg>
